ffmpeg started on 2025-06-23 at 20:38:53
Report written to "D:\Convert\FFMetrics\reports\ssim_report-6.txt"
Log level: 32
Command line:
ffmpeg -hide_banner -nostdin -i "G:\\\xc0\xed\xe8\xec\xe5\\[\xd2\xee\xef-4]\\\xcc\xee\xe6\xe5\xf2, \xff \xe2\xf1\xf2\xf0\xe5\xf7\xf3 \xf2\xe5\xe1\xff \xe2 \xef\xee\xe4\xe7\xe5\xec\xe5\xeb\xfc\xe5\\\xd2\xc2-1\\DanMachi_[12]_[AniLibria_TV]_[HDTVRip_720p]_HEVC.mkv" -i "G:\\\xc0\xed\xe8\xec\xe5\\[\xd2\xee\xef-4]\\\xcc\xee\xe6\xe5\xf2, \xff \xe2\xf1\xf2\xf0\xe5\xf7\xf3 \xf2\xe5\xe1\xff \xe2 \xef\xee\xe4\xe7\xe5\xec\xe5\xeb\xfc\xe5\\\xd2\xc2-1\\DanMachi_[12]_[AniLibria_TV]_[HDTVRip_720p].mkv" -lavfi "[0:v]settb=AVTB,setpts=PTS-STARTPTS,format=pix_fmts=yuv420p10,fps=24000/1001,scale=1280:720:flags=bicubic[main];[1:v]settb=AVTB,setpts=PTS-STARTPTS,format=pix_fmts=yuv420p,fps=24000/1001,scale=1280:720:flags=bicubic[ref];[main][ref]ssim=eof_action=endall:stats_file='D\\:/Convert/FFMetrics/logs/ssim_logfile-6.txt'" -f null -
Input #0, matroska,webm, from 'G:\Аниме\[Топ-4]\Может, я встречу тебя в подземелье\ТВ-1\DanMachi_[12]_[AniLibria_TV]_[HDTVRip_720p]_HEVC.mkv':
  Metadata:
    ENCODER         : Lavf61.7.100
  Duration: 00:23:41.01, start: -0.021000, bitrate: 983 kb/s
  Stream #0:0(jpn): Video: hevc (Main 10), yuv420p10le(tv, bt709, progressive), 1280x720 [SAR 1:1 DAR 16:9], 23.98 fps, 23.98 tbr, 1k tbn (default)
      Metadata:
        title           : [HorribleSubs]
        ENCODER         : Lavc61.19.100 libx265
        BPS             : 785179
        DURATION        : 00:23:40.962708375
        NUMBER_OF_FRAMES: 34069
        NUMBER_OF_BYTES : 139463801
        _STATISTICS_WRITING_APP: mkvpropedit v66.0.0 ('Josie') 64-bit
        _STATISTICS_WRITING_DATE_UTC: 2025-06-23 09:22:38
        _STATISTICS_TAGS: BPS DURATION NUMBER_OF_FRAMES NUMBER_OF_BYTES
  Stream #0:1(rus): Audio: aac (LC), 48000 Hz, stereo, fltp (default)
      Metadata:
        title           : Metacarmex & Say
        ENCODER         : Lavc61.19.100 aac
        BPS             : 193611
        DURATION        : 00:23:40.991000000
        NUMBER_OF_FRAMES: 66610
        NUMBER_OF_BYTES : 34390032
        _STATISTICS_WRITING_APP: mkvpropedit v66.0.0 ('Josie') 64-bit
        _STATISTICS_WRITING_DATE_UTC: 2025-06-23 09:22:38
        _STATISTICS_TAGS: BPS DURATION NUMBER_OF_FRAMES NUMBER_OF_BYTES
  Stream #0:2(rus): Subtitle: ass (ssa) (default)
      Metadata:
        title           : Надписи [Vaisiliok]
        BPS             : 2
        DURATION        : 00:22:19.300000000
        NUMBER_OF_FRAMES: 4
        NUMBER_OF_BYTES : 387
        _STATISTICS_WRITING_APP: mkvpropedit v66.0.0 ('Josie') 64-bit
        _STATISTICS_WRITING_DATE_UTC: 2025-06-23 09:22:38
        _STATISTICS_TAGS: BPS DURATION NUMBER_OF_FRAMES NUMBER_OF_BYTES
  Stream #0:3(rus): Subtitle: ass (ssa)
      Metadata:
        title           : Полные [Vaisiliok]
        BPS             : 110
        DURATION        : 00:23:35.480000000
        NUMBER_OF_FRAMES: 293
        NUMBER_OF_BYTES : 19500
        _STATISTICS_WRITING_APP: mkvpropedit v66.0.0 ('Josie') 64-bit
        _STATISTICS_WRITING_DATE_UTC: 2025-06-23 09:22:38
        _STATISTICS_TAGS: BPS DURATION NUMBER_OF_FRAMES NUMBER_OF_BYTES
Input #1, matroska,webm, from 'G:\Аниме\[Топ-4]\Может, я встречу тебя в подземелье\ТВ-1\DanMachi_[12]_[AniLibria_TV]_[HDTVRip_720p].mkv':
  Metadata:
    encoder         : libebml v1.4.2 + libmatroska v1.6.4
    creation_time   : 2025-01-14T16:50:12.000000Z
  Duration: 00:23:40.99, start: 0.000000, bitrate: 1969 kb/s
  Stream #1:0(jpn): Video: h264 (High), yuv420p(progressive), 1280x720, SAR 1:1 DAR 16:9, 23.98 fps, 23.98 tbr, 1k tbn (default)
      Metadata:
        title           : [HorribleSubs]
        BPS             : 1772365
        DURATION        : 00:23:40.963000000
        NUMBER_OF_FRAMES: 34069
        NUMBER_OF_BYTES : 314808197
        _STATISTICS_WRITING_APP: mkvmerge v66.0.0 ('Josie') 64-bit
        _STATISTICS_WRITING_DATE_UTC: 2025-01-14 16:50:12
        _STATISTICS_TAGS: BPS DURATION NUMBER_OF_FRAMES NUMBER_OF_BYTES
  Stream #1:1(rus): Audio: aac (LC), 48000 Hz, stereo, fltp (default)
      Metadata:
        title           : Metacarmex & Say
        BPS             : 192091
        DURATION        : 00:23:40.992000000
        NUMBER_OF_FRAMES: 66609
        NUMBER_OF_BYTES : 34120014
        _STATISTICS_WRITING_APP: mkvmerge v66.0.0 ('Josie') 64-bit
        _STATISTICS_WRITING_DATE_UTC: 2025-01-14 16:50:12
        _STATISTICS_TAGS: BPS DURATION NUMBER_OF_FRAMES NUMBER_OF_BYTES
  Stream #1:2(rus): Subtitle: ass (ssa) (default)
      Metadata:
        title           : Надписи [Vaisiliok]
        BPS             : 2
        DURATION        : 00:22:19.300000000
        NUMBER_OF_FRAMES: 4
        NUMBER_OF_BYTES : 387
        _STATISTICS_WRITING_APP: mkvmerge v66.0.0 ('Josie') 64-bit
        _STATISTICS_WRITING_DATE_UTC: 2025-01-14 16:50:12
        _STATISTICS_TAGS: BPS DURATION NUMBER_OF_FRAMES NUMBER_OF_BYTES
  Stream #1:3(rus): Subtitle: ass (ssa)
      Metadata:
        title           : Полные [Vaisiliok]
        BPS             : 110
        DURATION        : 00:23:35.480000000
        NUMBER_OF_FRAMES: 293
        NUMBER_OF_BYTES : 19500
        _STATISTICS_WRITING_APP: mkvmerge v66.0.0 ('Josie') 64-bit
        _STATISTICS_WRITING_DATE_UTC: 2025-01-14 16:50:12
        _STATISTICS_TAGS: BPS DURATION NUMBER_OF_FRAMES NUMBER_OF_BYTES
  Stream #1:4: Attachment: ttf
      Metadata:
        filename        : ChinaCyr.ttf
        mimetype        : application/x-truetype-font
  Stream #1:5: Attachment: ttf
      Metadata:
        filename        : TkhO4vNj.ttf
        mimetype        : application/x-truetype-font
  Stream #1:6: Attachment: ttf
      Metadata:
        filename        : bonzai.ttf
        mimetype        : application/x-truetype-font
  Stream #1:7: Attachment: ttf
      Metadata:
        filename        : OpenSans-Semibold.ttf
        mimetype        : application/x-truetype-font
Stream mapping:
  Stream #0:0 (hevc) -> settb:default
  Stream #1:0 (h264) -> settb:default
  ssim:default -> Stream #0:0 (wrapped_avframe)
  Stream #0:1 -> #0:1 (aac (native) -> pcm_s16le (native))
[swscaler @ 000001fd9861aac0] No accelerated colorspace conversion found from yuv420p to bgr48le.
[swscaler @ 000001fd98695a40] No accelerated colorspace conversion found from yuv420p to bgr48le.
[swscaler @ 000001fd959c5a00] No accelerated colorspace conversion found from yuv420p to bgr48le.
[swscaler @ 000001fd98892ec0] No accelerated colorspace conversion found from yuv420p to bgr48le.
[swscaler @ 000001fd989ffb40] No accelerated colorspace conversion found from yuv420p to bgr48le.
[swscaler @ 000001fd98b63e80] No accelerated colorspace conversion found from yuv420p to bgr48le.
[swscaler @ 000001fd98cc7ec0] No accelerated colorspace conversion found from yuv420p to bgr48le.
[swscaler @ 000001fd98e16900] No accelerated colorspace conversion found from yuv420p to bgr48le.
[swscaler @ 000001fd98e72040] No accelerated colorspace conversion found from yuv420p to bgr48le.
[swscaler @ 000001fd98fea7c0] No accelerated colorspace conversion found from yuv420p to bgr48le.
[swscaler @ 000001fd99046040] No accelerated colorspace conversion found from yuv420p to bgr48le.
[swscaler @ 000001fd990a1040] No accelerated colorspace conversion found from yuv420p to bgr48le.
[swscaler @ 000001fd990d3a00] No accelerated colorspace conversion found from yuv420p to bgr48le.
[swscaler @ 000001fd9d195040] No accelerated colorspace conversion found from yuv420p to bgr48le.
[swscaler @ 000001fd9d1f9040] No accelerated colorspace conversion found from yuv420p to bgr48le.
[swscaler @ 000001fd9d2a6040] No accelerated colorspace conversion found from yuv420p to bgr48le.
Output #0, null, to 'pipe:':
  Metadata:
    encoder         : Lavf61.7.100
  Stream #0:0: Video: wrapped_avframe, yuv420p10le(tv, bt709, progressive), 1280x720 [SAR 1:1 DAR 16:9], q=2-31, 200 kb/s, 23.98 fps, 23.98 tbn
      Metadata:
        encoder         : Lavc61.19.100 wrapped_avframe
  Stream #0:1(rus): Audio: pcm_s16le, 48000 Hz, stereo, s16, 1536 kb/s (default)
      Metadata:
        title           : Metacarmex & Say
        _STATISTICS_TAGS: BPS DURATION NUMBER_OF_FRAMES NUMBER_OF_BYTES
        BPS             : 193611
        DURATION        : 00:23:40.991000000
        NUMBER_OF_FRAMES: 66610
        NUMBER_OF_BYTES : 34390032
        _STATISTICS_WRITING_APP: mkvpropedit v66.0.0 ('Josie') 64-bit
        _STATISTICS_WRITING_DATE_UTC: 2025-06-23 09:22:38
        encoder         : Lavc61.19.100 pcm_s16le
frame=   87 fps=0.0 q=-0.0 size=N/A time=00:00:03.62 bitrate=N/A speed=6.93x    frame=  185 fps=179 q=-0.0 size=N/A time=00:00:07.71 bitrate=N/A speed=7.48x    frame=  282 fps=181 q=-0.0 size=N/A time=00:00:11.76 bitrate=N/A speed=7.56x    frame=  376 fps=182 q=-0.0 size=N/A time=00:00:15.68 bitrate=N/A speed= 7.6x    frame=  467 fps=181 q=-0.0 size=N/A time=00:00:19.47 bitrate=N/A speed=7.53x    frame=  571 fps=185 q=-0.0 size=N/A time=00:00:23.81 bitrate=N/A speed= 7.7x    frame=  671 fps=186 q=-0.0 size=N/A time=00:00:27.98 bitrate=N/A speed=7.74x    frame=  758 fps=184 q=-0.0 size=N/A time=00:00:31.61 bitrate=N/A speed=7.66x    frame=  867 fps=186 q=-0.0 size=N/A time=00:00:36.16 bitrate=N/A speed=7.77x    frame=  958 fps=186 q=-0.0 size=N/A time=00:00:39.95 bitrate=N/A speed=7.74x    frame= 1063 fps=187 q=-0.0 size=N/A time=00:00:44.33 bitrate=N/A speed= 7.8x    frame= 1159 fps=187 q=-0.0 size=N/A time=00:00:48.33 bitrate=N/A speed= 7.8x    frame= 1254 fps=187 q=-0.0 size=N/A time=00:00:52.30 bitrate=N/A speed= 7.8x    frame= 1357 fps=188 q=-0.0 size=N/A time=00:00:56.59 bitrate=N/A speed=7.83x    frame= 1460 fps=189 q=-0.0 size=N/A time=00:01:00.89 bitrate=N/A speed=7.87x    frame= 1556 fps=189 q=-0.0 size=N/A time=00:01:04.89 bitrate=N/A speed=7.86x    frame= 1656 fps=189 q=-0.0 size=N/A time=00:01:09.06 bitrate=N/A speed=7.87x    frame= 1757 fps=189 q=-0.0 size=N/A time=00:01:13.28 bitrate=N/A speed=7.88x    frame= 1856 fps=189 q=-0.0 size=N/A time=00:01:17.41 bitrate=N/A speed=7.88x    frame= 1951 fps=189 q=-0.0 size=N/A time=00:01:21.37 bitrate=N/A speed=7.87x    frame= 2050 fps=189 q=-0.0 size=N/A time=00:01:25.50 bitrate=N/A speed=7.88x    frame= 2148 fps=189 q=-0.0 size=N/A time=00:01:29.58 bitrate=N/A speed=7.88x    frame= 2246 fps=189 q=-0.0 size=N/A time=00:01:33.67 bitrate=N/A speed=7.88x    frame= 2345 fps=189 q=-0.0 size=N/A time=00:01:37.80 bitrate=N/A speed=7.88x    frame= 2438 fps=189 q=-0.0 size=N/A time=00:01:41.68 bitrate=N/A speed=7.87x    frame= 2538 fps=189 q=-0.0 size=N/A time=00:01:45.85 bitrate=N/A speed=7.89x    frame= 2640 fps=189 q=-0.0 size=N/A time=00:01:50.11 bitrate=N/A speed=7.89x    frame= 2733 fps=189 q=-0.0 size=N/A time=00:01:53.98 bitrate=N/A speed=7.88x    frame= 2819 fps=188 q=-0.0 size=N/A time=00:01:57.57 bitrate=N/A speed=7.85x    frame= 2928 fps=189 q=-0.0 size=N/A time=00:02:02.12 bitrate=N/A speed=7.88x    frame= 3014 fps=188 q=-0.0 size=N/A time=00:02:05.70 bitrate=N/A speed=7.86x    frame= 3124 fps=189 q=-0.0 size=N/A time=00:02:10.29 bitrate=N/A speed=7.88x    frame= 3226 fps=189 q=-0.0 size=N/A time=00:02:14.55 bitrate=N/A speed= 7.9x    frame= 3311 fps=189 q=-0.0 size=N/A time=00:02:18.09 bitrate=N/A speed=7.87x    frame= 3418 fps=189 q=-0.0 size=N/A time=00:02:22.55 bitrate=N/A speed=7.89x    frame= 3520 fps=189 q=-0.0 size=N/A time=00:02:26.81 bitrate=N/A speed= 7.9x    frame= 3624 fps=190 q=-0.0 size=N/A time=00:02:31.15 bitrate=N/A speed=7.91x    frame= 3721 fps=190 q=-0.0 size=N/A time=00:02:35.19 bitrate=N/A speed=7.91x    frame= 3815 fps=189 q=-0.0 size=N/A time=00:02:39.11 bitrate=N/A speed= 7.9x    frame= 3917 fps=190 q=-0.0 size=N/A time=00:02:43.37 bitrate=N/A speed=7.91x    frame= 4016 fps=190 q=-0.0 size=N/A time=00:02:47.50 bitrate=N/A speed=7.91x    frame= 4115 fps=190 q=-0.0 size=N/A time=00:02:51.62 bitrate=N/A speed=7.91x    frame= 4198 fps=189 q=-0.0 size=N/A time=00:02:55.09 bitrate=N/A speed=7.88x    frame= 4310 fps=190 q=-0.0 size=N/A time=00:02:59.76 bitrate=N/A speed=7.91x    frame= 4411 fps=190 q=-0.0 size=N/A time=00:03:03.97 bitrate=N/A speed=7.91x    frame= 4508 fps=190 q=-0.0 size=N/A time=00:03:08.02 bitrate=N/A speed=7.91x    frame= 4601 fps=190 q=-0.0 size=N/A time=00:03:11.90 bitrate=N/A speed=7.91x    frame= 4707 fps=190 q=-0.0 size=N/A time=00:03:16.32 bitrate=N/A speed=7.92x    frame= 4810 fps=190 q=-0.0 size=N/A time=00:03:20.61 bitrate=N/A speed=7.93x    frame= 4909 fps=190 q=-0.0 size=N/A time=00:03:24.74 bitrate=N/A speed=7.93x    frame= 5008 fps=190 q=-0.0 size=N/A time=00:03:28.87 bitrate=N/A speed=7.93x    frame= 5117 fps=191 q=-0.0 size=N/A time=00:03:33.42 bitrate=N/A speed=7.95x    frame= 5216 fps=191 q=-0.0 size=N/A time=00:03:37.55 bitrate=N/A speed=7.95x    frame= 5309 fps=190 q=-0.0 size=N/A time=00:03:41.42 bitrate=N/A speed=7.94x    frame= 5415 fps=191 q=-0.0 size=N/A time=00:03:45.85 bitrate=N/A speed=7.96x    frame= 5517 fps=191 q=-0.0 size=N/A time=00:03:50.10 bitrate=N/A speed=7.96x    frame= 5615 fps=191 q=-0.0 size=N/A time=00:03:54.19 bitrate=N/A speed=7.96x    frame= 5715 fps=191 q=-0.0 size=N/A time=00:03:58.36 bitrate=N/A speed=7.96x    frame= 5814 fps=191 q=-0.0 size=N/A time=00:04:02.49 bitrate=N/A speed=7.96x    frame= 5915 fps=191 q=-0.0 size=N/A time=00:04:06.70 bitrate=N/A speed=7.96x    frame= 6015 fps=191 q=-0.0 size=N/A time=00:04:10.87 bitrate=N/A speed=7.97x    frame= 6113 fps=191 q=-0.0 size=N/A time=00:04:14.96 bitrate=N/A speed=7.97x    frame= 6217 fps=191 q=-0.0 size=N/A time=00:04:19.30 bitrate=N/A speed=7.97x    frame= 6315 fps=191 q=-0.0 size=N/A time=00:04:23.38 bitrate=N/A speed=7.97x    frame= 6405 fps=191 q=-0.0 size=N/A time=00:04:27.14 bitrate=N/A speed=7.96x    frame= 6516 fps=191 q=-0.0 size=N/A time=00:04:31.77 bitrate=N/A speed=7.98x    frame= 6615 fps=191 q=-0.0 size=N/A time=00:04:35.90 bitrate=N/A speed=7.98x    frame= 6719 fps=191 q=-0.0 size=N/A time=00:04:40.23 bitrate=N/A speed=7.98x    frame= 6817 fps=191 q=-0.0 size=N/A time=00:04:44.32 bitrate=N/A speed=7.98x    frame= 6916 fps=191 q=-0.0 size=N/A time=00:04:48.45 bitrate=N/A speed=7.98x    frame= 7025 fps=192 q=-0.0 size=N/A time=00:04:53.00 bitrate=N/A speed=7.99x    frame= 7123 fps=192 q=-0.0 size=N/A time=00:04:57.08 bitrate=N/A speed=   8x    frame= 7220 fps=192 q=-0.0 size=N/A time=00:05:01.13 bitrate=N/A speed=7.99x    frame= 7327 fps=192 q=-0.0 size=N/A time=00:05:05.59 bitrate=N/A speed=   8x    frame= 7426 fps=192 q=-0.0 size=N/A time=00:05:09.72 bitrate=N/A speed=   8x    frame= 7530 fps=192 q=-0.0 size=N/A time=00:05:14.06 bitrate=N/A speed=8.01x    frame= 7628 fps=192 q=-0.0 size=N/A time=00:05:18.15 bitrate=N/A speed=8.01x    frame= 7723 fps=192 q=-0.0 size=N/A time=00:05:22.11 bitrate=N/A speed=   8x    frame= 7823 fps=192 q=-0.0 size=N/A time=00:05:26.28 bitrate=N/A speed=   8x    frame= 7929 fps=192 q=-0.0 size=N/A time=00:05:30.70 bitrate=N/A speed=8.01x    frame= 8028 fps=192 q=-0.0 size=N/A time=00:05:34.83 bitrate=N/A speed=8.01x    frame= 8130 fps=192 q=-0.0 size=N/A time=00:05:39.08 bitrate=N/A speed=8.01x    frame= 8225 fps=192 q=-0.0 size=N/A time=00:05:43.05 bitrate=N/A speed=8.01x    frame= 8332 fps=192 q=-0.0 size=N/A time=00:05:47.51 bitrate=N/A speed=8.02x    frame= 8429 fps=192 q=-0.0 size=N/A time=00:05:51.55 bitrate=N/A speed=8.02x    frame= 8527 fps=192 q=-0.0 size=N/A time=00:05:55.64 bitrate=N/A speed=8.01x    frame= 8625 fps=192 q=-0.0 size=N/A time=00:05:59.73 bitrate=N/A speed=8.01x    frame= 8725 fps=192 q=-0.0 size=N/A time=00:06:03.90 bitrate=N/A speed=8.01x    frame= 8825 fps=192 q=-0.0 size=N/A time=00:06:08.07 bitrate=N/A speed=8.01x    frame= 8920 fps=192 q=-0.0 size=N/A time=00:06:12.03 bitrate=N/A speed=8.01x    frame= 9017 fps=192 q=-0.0 size=N/A time=00:06:16.08 bitrate=N/A speed=8.01x    frame= 9116 fps=192 q=-0.0 size=N/A time=00:06:20.21 bitrate=N/A speed=8.01x    frame= 9215 fps=192 q=-0.0 size=N/A time=00:06:24.34 bitrate=N/A speed=8.01x    frame= 9310 fps=192 q=-0.0 size=N/A time=00:06:28.30 bitrate=N/A speed=8.01x    frame= 9402 fps=192 q=-0.0 size=N/A time=00:06:32.14 bitrate=N/A speed=   8x    frame= 9510 fps=192 q=-0.0 size=N/A time=00:06:36.64 bitrate=N/A speed=8.01x    frame= 9605 fps=192 q=-0.0 size=N/A time=00:06:40.60 bitrate=N/A speed=   8x    frame= 9694 fps=192 q=-0.0 size=N/A time=00:06:44.32 bitrate=N/A speed=   8x    frame= 9806 fps=192 q=-0.0 size=N/A time=00:06:48.99 bitrate=N/A speed=8.01x    frame= 9903 fps=192 q=-0.0 size=N/A time=00:06:53.03 bitrate=N/A speed=   8x    frame=10001 fps=192 q=-0.0 size=N/A time=00:06:57.12 bitrate=N/A speed=   8x    frame=10096 fps=192 q=-0.0 size=N/A time=00:07:01.08 bitrate=N/A speed=   8x    frame=10204 fps=192 q=-0.0 size=N/A time=00:07:05.59 bitrate=N/A speed=8.01x    frame=10297 fps=192 q=-0.0 size=N/A time=00:07:09.47 bitrate=N/A speed=   8x    frame=10394 fps=192 q=-0.0 size=N/A time=00:07:13.51 bitrate=N/A speed=   8x    frame=10488 fps=192 q=-0.0 size=N/A time=00:07:17.43 bitrate=N/A speed=   8x    frame=10589 fps=192 q=-0.0 size=N/A time=00:07:21.64 bitrate=N/A speed=   8x    frame=10683 fps=192 q=-0.0 size=N/A time=00:07:25.57 bitrate=N/A speed=   8x    frame=10780 fps=192 q=-0.0 size=N/A time=00:07:29.61 bitrate=N/A speed=7.99x    frame=10878 fps=192 q=-0.0 size=N/A time=00:07:33.70 bitrate=N/A speed=7.99x    frame=10971 fps=192 q=-0.0 size=N/A time=00:07:37.58 bitrate=N/A speed=7.99x    frame=11072 fps=192 q=-0.0 size=N/A time=00:07:41.79 bitrate=N/A speed=7.99x    frame=11169 fps=192 q=-0.0 size=N/A time=00:07:45.84 bitrate=N/A speed=7.99x    frame=11271 fps=192 q=-0.0 size=N/A time=00:07:50.09 bitrate=N/A speed=7.99x    frame=11367 fps=192 q=-0.0 size=N/A time=00:07:54.09 bitrate=N/A speed=7.99x    frame=11462 fps=192 q=-0.0 size=N/A time=00:07:58.06 bitrate=N/A speed=7.99x    frame=11559 fps=191 q=-0.0 size=N/A time=00:08:02.10 bitrate=N/A speed=7.99x    frame=11653 fps=191 q=-0.0 size=N/A time=00:08:06.02 bitrate=N/A speed=7.98x    frame=11751 fps=191 q=-0.0 size=N/A time=00:08:10.11 bitrate=N/A speed=7.98x    frame=11849 fps=191 q=-0.0 size=N/A time=00:08:14.20 bitrate=N/A speed=7.98x    frame=11951 fps=191 q=-0.0 size=N/A time=00:08:18.45 bitrate=N/A speed=7.98x    frame=12044 fps=191 q=-0.0 size=N/A time=00:08:22.33 bitrate=N/A speed=7.98x    frame=12146 fps=191 q=-0.0 size=N/A time=00:08:26.58 bitrate=N/A speed=7.98x    frame=12237 fps=191 q=-0.0 size=N/A time=00:08:30.38 bitrate=N/A speed=7.97x    frame=12345 fps=191 q=-0.0 size=N/A time=00:08:34.88 bitrate=N/A speed=7.98x    frame=12443 fps=191 q=-0.0 size=N/A time=00:08:38.97 bitrate=N/A speed=7.98x    frame=12547 fps=191 q=-0.0 size=N/A time=00:08:43.31 bitrate=N/A speed=7.98x    frame=12647 fps=191 q=-0.0 size=N/A time=00:08:47.48 bitrate=N/A speed=7.98x    frame=12746 fps=191 q=-0.0 size=N/A time=00:08:51.61 bitrate=N/A speed=7.98x    frame=12845 fps=191 q=-0.0 size=N/A time=00:08:55.74 bitrate=N/A speed=7.99x    frame=12940 fps=191 q=-0.0 size=N/A time=00:08:59.70 bitrate=N/A speed=7.98x    frame=13038 fps=191 q=-0.0 size=N/A time=00:09:03.79 bitrate=N/A speed=7.98x    frame=13137 fps=191 q=-0.0 size=N/A time=00:09:07.92 bitrate=N/A speed=7.98x    frame=13233 fps=191 q=-0.0 size=N/A time=00:09:11.92 bitrate=N/A speed=7.98x    frame=13334 fps=191 q=-0.0 size=N/A time=00:09:16.13 bitrate=N/A speed=7.98x    frame=13428 fps=191 q=-0.0 size=N/A time=00:09:20.05 bitrate=N/A speed=7.98x    frame=13522 fps=191 q=-0.0 size=N/A time=00:09:23.98 bitrate=N/A speed=7.98x    frame=13615 fps=191 q=-0.0 size=N/A time=00:09:27.85 bitrate=N/A speed=7.97x    frame=13724 fps=191 q=-0.0 size=N/A time=00:09:32.40 bitrate=N/A speed=7.98x    frame=13822 fps=191 q=-0.0 size=N/A time=00:09:36.49 bitrate=N/A speed=7.98x    frame=13918 fps=191 q=-0.0 size=N/A time=00:09:40.49 bitrate=N/A speed=7.98x    frame=14028 fps=191 q=-0.0 size=N/A time=00:09:45.08 bitrate=N/A speed=7.98x    frame=14133 fps=191 q=-0.0 size=N/A time=00:09:49.46 bitrate=N/A speed=7.99x    frame=14233 fps=192 q=-0.0 size=N/A time=00:09:53.63 bitrate=N/A speed=7.99x    frame=14335 fps=192 q=-0.0 size=N/A time=00:09:57.88 bitrate=N/A speed=7.99x    frame=14436 fps=192 q=-0.0 size=N/A time=00:10:02.10 bitrate=N/A speed=7.99x    frame=14540 fps=192 q=-0.0 size=N/A time=00:10:06.43 bitrate=N/A speed=7.99x    frame=14640 fps=192 q=-0.0 size=N/A time=00:10:10.61 bitrate=N/A speed=7.99x    frame=14738 fps=192 q=-0.0 size=N/A time=00:10:14.69 bitrate=N/A speed=7.99x    frame=14843 fps=192 q=-0.0 size=N/A time=00:10:19.07 bitrate=N/A speed=   8x    frame=14945 fps=192 q=-0.0 size=N/A time=00:10:23.33 bitrate=N/A speed=   8x    frame=15036 fps=192 q=-0.0 size=N/A time=00:10:27.12 bitrate=N/A speed=7.99x    frame=15145 fps=192 q=-0.0 size=N/A time=00:10:31.67 bitrate=N/A speed=   8x    frame=15238 fps=192 q=-0.0 size=N/A time=00:10:35.55 bitrate=N/A speed=   8x    frame=15337 fps=192 q=-0.0 size=N/A time=00:10:39.68 bitrate=N/A speed=   8x    frame=15433 fps=192 q=-0.0 size=N/A time=00:10:43.68 bitrate=N/A speed=   8x    frame=15530 fps=192 q=-0.0 size=N/A time=00:10:47.73 bitrate=N/A speed=7.99x    frame=15622 fps=192 q=-0.0 size=N/A time=00:10:51.56 bitrate=N/A speed=7.99x    frame=15732 fps=192 q=-0.0 size=N/A time=00:10:56.15 bitrate=N/A speed=   8x    frame=15836 fps=192 q=-0.0 size=N/A time=00:11:00.49 bitrate=N/A speed=   8x    frame=15936 fps=192 q=-0.0 size=N/A time=00:11:04.66 bitrate=N/A speed=   8x    frame=16037 fps=192 q=-0.0 size=N/A time=00:11:08.87 bitrate=N/A speed=   8x    frame=16137 fps=192 q=-0.0 size=N/A time=00:11:13.04 bitrate=N/A speed=   8x    frame=16236 fps=192 q=-0.0 size=N/A time=00:11:17.17 bitrate=N/A speed=   8x    frame=16335 fps=192 q=-0.0 size=N/A time=00:11:21.30 bitrate=N/A speed=   8x    frame=16433 fps=192 q=-0.0 size=N/A time=00:11:25.39 bitrate=N/A speed=   8x    frame=16538 fps=192 q=-0.0 size=N/A time=00:11:29.77 bitrate=N/A speed=   8x    frame=16635 fps=192 q=-0.0 size=N/A time=00:11:33.81 bitrate=N/A speed=   8x    frame=16737 fps=192 q=-0.0 size=N/A time=00:11:38.07 bitrate=N/A speed=   8x    frame=16838 fps=192 q=-0.0 size=N/A time=00:11:42.28 bitrate=N/A speed=8.01x    frame=16937 fps=192 q=-0.0 size=N/A time=00:11:46.41 bitrate=N/A speed=8.01x    frame=17047 fps=192 q=-0.0 size=N/A time=00:11:51.00 bitrate=N/A speed=8.01x    frame=17140 fps=192 q=-0.0 size=N/A time=00:11:54.88 bitrate=N/A speed=8.01x    frame=17240 fps=192 q=-0.0 size=N/A time=00:11:59.05 bitrate=N/A speed=8.01x    frame=17341 fps=192 q=-0.0 size=N/A time=00:12:03.26 bitrate=N/A speed=8.01x    frame=17434 fps=192 q=-0.0 size=N/A time=00:12:07.14 bitrate=N/A speed=8.01x    frame=17539 fps=192 q=-0.0 size=N/A time=00:12:11.52 bitrate=N/A speed=8.01x    frame=17632 fps=192 q=-0.0 size=N/A time=00:12:15.40 bitrate=N/A speed=8.01x    frame=17733 fps=192 q=-0.0 size=N/A time=00:12:19.61 bitrate=N/A speed=8.01x    frame=17834 fps=192 q=-0.0 size=N/A time=00:12:23.82 bitrate=N/A speed=8.01x    frame=17937 fps=192 q=-0.0 size=N/A time=00:12:28.12 bitrate=N/A speed=8.01x    frame=18038 fps=192 q=-0.0 size=N/A time=00:12:32.33 bitrate=N/A speed=8.01x    frame=18140 fps=192 q=-0.0 size=N/A time=00:12:36.58 bitrate=N/A speed=8.01x    frame=18242 fps=192 q=-0.0 size=N/A time=00:12:40.84 bitrate=N/A speed=8.01x    frame=18342 fps=192 q=-0.0 size=N/A time=00:12:45.01 bitrate=N/A speed=8.01x    frame=18442 fps=192 q=-0.0 size=N/A time=00:12:49.18 bitrate=N/A speed=8.01x    frame=18541 fps=192 q=-0.0 size=N/A time=00:12:53.31 bitrate=N/A speed=8.01x    frame=18642 fps=192 q=-0.0 size=N/A time=00:12:57.52 bitrate=N/A speed=8.02x    frame=18743 fps=192 q=-0.0 size=N/A time=00:13:01.73 bitrate=N/A speed=8.02x    frame=18839 fps=192 q=-0.0 size=N/A time=00:13:05.74 bitrate=N/A speed=8.01x    frame=18940 fps=192 q=-0.0 size=N/A time=00:13:09.95 bitrate=N/A speed=8.02x    frame=19040 fps=192 q=-0.0 size=N/A time=00:13:14.12 bitrate=N/A speed=8.02x    frame=19134 fps=192 q=-0.0 size=N/A time=00:13:18.04 bitrate=N/A speed=8.01x    frame=19238 fps=192 q=-0.0 size=N/A time=00:13:22.38 bitrate=N/A speed=8.02x    frame=19342 fps=192 q=-0.0 size=N/A time=00:13:26.72 bitrate=N/A speed=8.02x    frame=19445 fps=192 q=-0.0 size=N/A time=00:13:31.01 bitrate=N/A speed=8.02x    frame=19541 fps=192 q=-0.0 size=N/A time=00:13:35.02 bitrate=N/A speed=8.02x    frame=19645 fps=192 q=-0.0 size=N/A time=00:13:39.36 bitrate=N/A speed=8.02x    frame=19742 fps=192 q=-0.0 size=N/A time=00:13:43.40 bitrate=N/A speed=8.02x    frame=19840 fps=192 q=-0.0 size=N/A time=00:13:47.49 bitrate=N/A speed=8.02x    frame=19942 fps=192 q=-0.0 size=N/A time=00:13:51.74 bitrate=N/A speed=8.02x    frame=20040 fps=192 q=-0.0 size=N/A time=00:13:55.83 bitrate=N/A speed=8.02x    frame=20141 fps=192 q=-0.0 size=N/A time=00:14:00.04 bitrate=N/A speed=8.02x    frame=20240 fps=192 q=-0.0 size=N/A time=00:14:04.17 bitrate=N/A speed=8.02x    frame=20342 fps=192 q=-0.0 size=N/A time=00:14:08.43 bitrate=N/A speed=8.02x    frame=20438 fps=192 q=-0.0 size=N/A time=00:14:12.43 bitrate=N/A speed=8.02x    frame=20535 fps=192 q=-0.0 size=N/A time=00:14:16.48 bitrate=N/A speed=8.02x    frame=20637 fps=192 q=-0.0 size=N/A time=00:14:20.73 bitrate=N/A speed=8.02x    frame=20736 fps=192 q=-0.0 size=N/A time=00:14:24.86 bitrate=N/A speed=8.02x    frame=20836 fps=192 q=-0.0 size=N/A time=00:14:29.03 bitrate=N/A speed=8.02x    frame=20938 fps=192 q=-0.0 size=N/A time=00:14:33.28 bitrate=N/A speed=8.02x    frame=21036 fps=192 q=-0.0 size=N/A time=00:14:37.37 bitrate=N/A speed=8.02x    frame=21137 fps=192 q=-0.0 size=N/A time=00:14:41.58 bitrate=N/A speed=8.02x    frame=21234 fps=192 q=-0.0 size=N/A time=00:14:45.63 bitrate=N/A speed=8.02x    frame=21332 fps=192 q=-0.0 size=N/A time=00:14:49.72 bitrate=N/A speed=8.02x    frame=21425 fps=192 q=-0.0 size=N/A time=00:14:53.60 bitrate=N/A speed=8.02x    frame=21528 fps=192 q=-0.0 size=N/A time=00:14:57.89 bitrate=N/A speed=8.02x    frame=21633 fps=192 q=-0.0 size=N/A time=00:15:02.27 bitrate=N/A speed=8.02x    frame=21735 fps=192 q=-0.0 size=N/A time=00:15:06.53 bitrate=N/A speed=8.02x    frame=21833 fps=192 q=-0.0 size=N/A time=00:15:10.61 bitrate=N/A speed=8.02x    frame=21934 fps=192 q=-0.0 size=N/A time=00:15:14.83 bitrate=N/A speed=8.02x    frame=22035 fps=192 q=-0.0 size=N/A time=00:15:19.04 bitrate=N/A speed=8.02x    frame=22130 fps=192 q=-0.0 size=N/A time=00:15:23.00 bitrate=N/A speed=8.02x    frame=22239 fps=192 q=-0.0 size=N/A time=00:15:27.55 bitrate=N/A speed=8.02x    frame=22339 fps=192 q=-0.0 size=N/A time=00:15:31.72 bitrate=N/A speed=8.03x    frame=22443 fps=192 q=-0.0 size=N/A time=00:15:36.06 bitrate=N/A speed=8.03x    frame=22540 fps=192 q=-0.0 size=N/A time=00:15:40.10 bitrate=N/A speed=8.03x    frame=22629 fps=192 q=-0.0 size=N/A time=00:15:43.81 bitrate=N/A speed=8.02x    frame=22741 fps=192 q=-0.0 size=N/A time=00:15:48.48 bitrate=N/A speed=8.03x    frame=22840 fps=192 q=-0.0 size=N/A time=00:15:52.61 bitrate=N/A speed=8.03x    frame=22936 fps=192 q=-0.0 size=N/A time=00:15:56.62 bitrate=N/A speed=8.03x    frame=23034 fps=192 q=-0.0 size=N/A time=00:16:00.70 bitrate=N/A speed=8.03x    frame=23132 fps=192 q=-0.0 size=N/A time=00:16:04.79 bitrate=N/A speed=8.03x    frame=23229 fps=192 q=-0.0 size=N/A time=00:16:08.84 bitrate=N/A speed=8.02x    frame=23323 fps=192 q=-0.0 size=N/A time=00:16:12.76 bitrate=N/A speed=8.02x    frame=23429 fps=192 q=-0.0 size=N/A time=00:16:17.18 bitrate=N/A speed=8.02x    frame=23523 fps=192 q=-0.0 size=N/A time=00:16:21.10 bitrate=N/A speed=8.02x    frame=23626 fps=192 q=-0.0 size=N/A time=00:16:25.40 bitrate=N/A speed=8.02x    frame=23714 fps=192 q=-0.0 size=N/A time=00:16:29.07 bitrate=N/A speed=8.02x    frame=23822 fps=192 q=-0.0 size=N/A time=00:16:33.57 bitrate=N/A speed=8.02x    frame=23908 fps=192 q=-0.0 size=N/A time=00:16:37.16 bitrate=N/A speed=8.02x    frame=24016 fps=192 q=-0.0 size=N/A time=00:16:41.66 bitrate=N/A speed=8.02x    frame=24119 fps=192 q=-0.0 size=N/A time=00:16:45.96 bitrate=N/A speed=8.02x    frame=24207 fps=192 q=-0.0 size=N/A time=00:16:49.63 bitrate=N/A speed=8.02x    frame=24320 fps=192 q=-0.0 size=N/A time=00:16:54.34 bitrate=N/A speed=8.02x    frame=24410 fps=192 q=-0.0 size=N/A time=00:16:58.10 bitrate=N/A speed=8.02x    frame=24516 fps=192 q=-0.0 size=N/A time=00:17:02.52 bitrate=N/A speed=8.02x    frame=24621 fps=192 q=-0.0 size=N/A time=00:17:06.90 bitrate=N/A speed=8.03x    frame=24718 fps=192 q=-0.0 size=N/A time=00:17:10.94 bitrate=N/A speed=8.02x    frame=24824 fps=192 q=-0.0 size=N/A time=00:17:15.36 bitrate=N/A speed=8.03x    frame=24920 fps=192 q=-0.0 size=N/A time=00:17:19.37 bitrate=N/A speed=8.03x    frame=25021 fps=192 q=-0.0 size=N/A time=00:17:23.58 bitrate=N/A speed=8.03x    frame=25114 fps=192 q=-0.0 size=N/A time=00:17:27.46 bitrate=N/A speed=8.02x    frame=25214 fps=192 q=-0.0 size=N/A time=00:17:31.63 bitrate=N/A speed=8.02x    frame=25313 fps=192 q=-0.0 size=N/A time=00:17:35.76 bitrate=N/A speed=8.02x    frame=25408 fps=192 q=-0.0 size=N/A time=00:17:39.72 bitrate=N/A speed=8.02x    frame=25502 fps=192 q=-0.0 size=N/A time=00:17:43.64 bitrate=N/A speed=8.02x    frame=25596 fps=192 q=-0.0 size=N/A time=00:17:47.56 bitrate=N/A speed=8.02x    frame=25701 fps=192 q=-0.0 size=N/A time=00:17:51.94 bitrate=N/A speed=8.02x    frame=25799 fps=192 q=-0.0 size=N/A time=00:17:56.03 bitrate=N/A speed=8.02x    frame=25907 fps=192 q=-0.0 size=N/A time=00:18:00.53 bitrate=N/A speed=8.02x    frame=25995 fps=192 q=-0.0 size=N/A time=00:18:04.20 bitrate=N/A speed=8.02x    frame=26108 fps=192 q=-0.0 size=N/A time=00:18:08.92 bitrate=N/A speed=8.02x    frame=26209 fps=192 q=-0.0 size=N/A time=00:18:13.13 bitrate=N/A speed=8.02x    frame=26310 fps=192 q=-0.0 size=N/A time=00:18:17.34 bitrate=N/A speed=8.03x    frame=26413 fps=192 q=-0.0 size=N/A time=00:18:21.64 bitrate=N/A speed=8.03x    frame=26510 fps=192 q=-0.0 size=N/A time=00:18:25.68 bitrate=N/A speed=8.03x    frame=26608 fps=192 q=-0.0 size=N/A time=00:18:29.77 bitrate=N/A speed=8.03x    frame=26705 fps=192 q=-0.0 size=N/A time=00:18:33.82 bitrate=N/A speed=8.03x    frame=26798 fps=192 q=-0.0 size=N/A time=00:18:37.69 bitrate=N/A speed=8.02x    frame=26909 fps=192 q=-0.0 size=N/A time=00:18:42.32 bitrate=N/A speed=8.03x    frame=27000 fps=192 q=-0.0 size=N/A time=00:18:46.12 bitrate=N/A speed=8.02x    frame=27107 fps=192 q=-0.0 size=N/A time=00:18:50.58 bitrate=N/A speed=8.03x    frame=27209 fps=192 q=-0.0 size=N/A time=00:18:54.84 bitrate=N/A speed=8.03x    frame=27303 fps=192 q=-0.0 size=N/A time=00:18:58.76 bitrate=N/A speed=8.03x    frame=27406 fps=192 q=-0.0 size=N/A time=00:19:03.05 bitrate=N/A speed=8.03x    frame=27493 fps=192 q=-0.0 size=N/A time=00:19:06.68 bitrate=N/A speed=8.02x    frame=27603 fps=192 q=-0.0 size=N/A time=00:19:11.27 bitrate=N/A speed=8.03x    frame=27703 fps=192 q=-0.0 size=N/A time=00:19:15.44 bitrate=N/A speed=8.03x    frame=27799 fps=192 q=-0.0 size=N/A time=00:19:19.44 bitrate=N/A speed=8.03x    frame=27900 fps=192 q=-0.0 size=N/A time=00:19:23.66 bitrate=N/A speed=8.03x    frame=27995 fps=192 q=-0.0 size=N/A time=00:19:27.62 bitrate=N/A speed=8.03x    frame=28093 fps=192 q=-0.0 size=N/A time=00:19:31.71 bitrate=N/A speed=8.02x    frame=28188 fps=192 q=-0.0 size=N/A time=00:19:35.67 bitrate=N/A speed=8.02x    frame=28291 fps=192 q=-0.0 size=N/A time=00:19:39.97 bitrate=N/A speed=8.03x    frame=28397 fps=192 q=-0.0 size=N/A time=00:19:44.39 bitrate=N/A speed=8.03x    frame=28488 fps=192 q=-0.0 size=N/A time=00:19:48.18 bitrate=N/A speed=8.02x    frame=28594 fps=192 q=-0.0 size=N/A time=00:19:52.60 bitrate=N/A speed=8.03x    frame=28694 fps=192 q=-0.0 size=N/A time=00:19:56.77 bitrate=N/A speed=8.03x    frame=28792 fps=192 q=-0.0 size=N/A time=00:20:00.86 bitrate=N/A speed=8.03x    frame=28893 fps=192 q=-0.0 size=N/A time=00:20:05.07 bitrate=N/A speed=8.03x    frame=28993 fps=192 q=-0.0 size=N/A time=00:20:09.24 bitrate=N/A speed=8.03x    frame=29087 fps=192 q=-0.0 size=N/A time=00:20:13.17 bitrate=N/A speed=8.03x    frame=29177 fps=192 q=-0.0 size=N/A time=00:20:16.92 bitrate=N/A speed=8.02x    frame=29290 fps=192 q=-0.0 size=N/A time=00:20:21.63 bitrate=N/A speed=8.03x    frame=29390 fps=192 q=-0.0 size=N/A time=00:20:25.80 bitrate=N/A speed=8.03x    frame=29481 fps=192 q=-0.0 size=N/A time=00:20:29.60 bitrate=N/A speed=8.03x    frame=29578 fps=192 q=-0.0 size=N/A time=00:20:33.64 bitrate=N/A speed=8.02x    frame=29668 fps=192 q=-0.0 size=N/A time=00:20:37.40 bitrate=N/A speed=8.02x    frame=29776 fps=192 q=-0.0 size=N/A time=00:20:41.90 bitrate=N/A speed=8.02x    frame=29868 fps=192 q=-0.0 size=N/A time=00:20:45.74 bitrate=N/A speed=8.02x    frame=29971 fps=192 q=-0.0 size=N/A time=00:20:50.04 bitrate=N/A speed=8.02x    frame=30072 fps=192 q=-0.0 size=N/A time=00:20:54.25 bitrate=N/A speed=8.02x    frame=30168 fps=192 q=-0.0 size=N/A time=00:20:58.25 bitrate=N/A speed=8.02x    frame=30271 fps=192 q=-0.0 size=N/A time=00:21:02.55 bitrate=N/A speed=8.02x    frame=30368 fps=192 q=-0.0 size=N/A time=00:21:06.59 bitrate=N/A speed=8.02x    frame=30470 fps=192 q=-0.0 size=N/A time=00:21:10.85 bitrate=N/A speed=8.02x    frame=30568 fps=192 q=-0.0 size=N/A time=00:21:14.94 bitrate=N/A speed=8.02x    frame=30663 fps=192 q=-0.0 size=N/A time=00:21:18.90 bitrate=N/A speed=8.02x    frame=30762 fps=192 q=-0.0 size=N/A time=00:21:23.03 bitrate=N/A speed=8.02x    frame=30851 fps=192 q=-0.0 size=N/A time=00:21:26.74 bitrate=N/A speed=8.02x    frame=30960 fps=192 q=-0.0 size=N/A time=00:21:31.29 bitrate=N/A speed=8.02x    frame=31063 fps=192 q=-0.0 size=N/A time=00:21:35.58 bitrate=N/A speed=8.02x    frame=31165 fps=192 q=-0.0 size=N/A time=00:21:39.84 bitrate=N/A speed=8.02x    frame=31262 fps=192 q=-0.0 size=N/A time=00:21:43.88 bitrate=N/A speed=8.02x    frame=31362 fps=192 q=-0.0 size=N/A time=00:21:48.05 bitrate=N/A speed=8.02x    frame=31459 fps=192 q=-0.0 size=N/A time=00:21:52.10 bitrate=N/A speed=8.02x    frame=31561 fps=192 q=-0.0 size=N/A time=00:21:56.35 bitrate=N/A speed=8.02x    frame=31650 fps=192 q=-0.0 size=N/A time=00:22:00.06 bitrate=N/A speed=8.02x    frame=31754 fps=192 q=-0.0 size=N/A time=00:22:04.40 bitrate=N/A speed=8.02x    frame=31853 fps=192 q=-0.0 size=N/A time=00:22:08.53 bitrate=N/A speed=8.02x    frame=31951 fps=192 q=-0.0 size=N/A time=00:22:12.62 bitrate=N/A speed=8.02x    frame=32046 fps=192 q=-0.0 size=N/A time=00:22:16.58 bitrate=N/A speed=8.02x    frame=32139 fps=192 q=-0.0 size=N/A time=00:22:20.46 bitrate=N/A speed=8.02x    frame=32237 fps=192 q=-0.0 size=N/A time=00:22:24.55 bitrate=N/A speed=8.02x    frame=32319 fps=192 q=-0.0 size=N/A time=00:22:27.97 bitrate=N/A speed=8.01x    frame=32417 fps=192 q=-0.0 size=N/A time=00:22:32.05 bitrate=N/A speed=8.01x    frame=32511 fps=192 q=-0.0 size=N/A time=00:22:35.97 bitrate=N/A speed=8.01x    frame=32606 fps=192 q=-0.0 size=N/A time=00:22:39.94 bitrate=N/A speed=8.01x    frame=32701 fps=192 q=-0.0 size=N/A time=00:22:43.90 bitrate=N/A speed=8.01x    frame=32806 fps=192 q=-0.0 size=N/A time=00:22:48.28 bitrate=N/A speed=8.01x    frame=32902 fps=192 q=-0.0 size=N/A time=00:22:52.28 bitrate=N/A speed=8.01x    frame=33000 fps=192 q=-0.0 size=N/A time=00:22:56.37 bitrate=N/A speed=8.01x    frame=33100 fps=192 q=-0.0 size=N/A time=00:23:00.54 bitrate=N/A speed=8.01x    frame=33194 fps=192 q=-0.0 size=N/A time=00:23:04.46 bitrate=N/A speed=8.01x    frame=33295 fps=192 q=-0.0 size=N/A time=00:23:08.67 bitrate=N/A speed=8.01x    frame=33384 fps=192 q=-0.0 size=N/A time=00:23:12.39 bitrate=N/A speed=8.01x    frame=33487 fps=192 q=-0.0 size=N/A time=00:23:16.68 bitrate=N/A speed=8.01x    frame=33582 fps=192 q=-0.0 size=N/A time=00:23:20.64 bitrate=N/A speed=8.01x    frame=33681 fps=192 q=-0.0 size=N/A time=00:23:24.77 bitrate=N/A speed=8.01x    frame=33775 fps=192 q=-0.0 size=N/A time=00:23:28.69 bitrate=N/A speed=8.01x    frame=33868 fps=192 q=-0.0 size=N/A time=00:23:32.57 bitrate=N/A speed=8.01x    frame=33964 fps=192 q=-0.0 size=N/A time=00:23:36.58 bitrate=N/A speed=8.01x    frame=34068 fps=192 q=-0.0 size=N/A time=00:23:40.91 bitrate=N/A speed=8.01x    [Parsed_ssim_10 @ 000001fd903f9a00] SSIM Y:0.991077 (20.495035) U:0.991049 (20.481059) V:0.991455 (20.682903) All:0.991135 (20.523439)
[out#0/null @ 000001fd8c65fec0] video:14639KiB audio:266440KiB subtitle:0KiB other streams:0KiB global headers:0KiB muxing overhead: unknown
frame=34069 fps=192 q=-0.0 Lsize=N/A time=00:23:40.96 bitrate=N/A speed=8.01x    
